<!-- Generated by IcoMoon.io -->
<svg version="1.1" xmlns="http://www.w3.org/2000/svg" width="34" height="32" viewBox="0 0 34 32">
<title>Group1</title>
<path d="M33.887 11.793c-0.275-0.842-1.003-1.458-1.883-1.587l-8.358-1.216-3.74-7.574c-0.784-1.596-3.4-1.596-4.184 0l-3.74 7.574-8.358 1.216c-0.88 0.128-1.608 0.742-1.885 1.587-0.273 0.845-0.047 1.773 0.59 2.392l6.050 5.897-1.428 8.325c-0.149 0.875 0.21 1.759 0.926 2.282 0.726 0.527 1.673 0.592 2.459 0.177l7.476-3.932 7.476 3.932c0.341 0.18 0.716 0.268 1.087 0.268 0.483 0 0.966-0.149 1.372-0.446 0.719-0.522 1.078-1.407 0.926-2.282l-1.428-8.326 6.050-5.896c0.634-0.621 0.863-1.547 0.59-2.392zM23.111 17.598c-0.548 0.534-0.8 1.309-0.67 2.065l0.835 4.874-4.377-2.301c-0.341-0.18-0.714-0.268-1.087-0.268s-0.744 0.089-1.087 0.268l-4.378 2.301 0.835-4.874c0.131-0.756-0.121-1.528-0.67-2.065l-3.544-3.453 4.895-0.712c0.761-0.11 1.416-0.588 1.757-1.276l2.189-4.433 2.189 4.433c0.341 0.688 0.996 1.167 1.757 1.276l4.895 0.712-3.54 3.453z"></path>
</svg>
